<svg xmlns="http://www.w3.org/2000/svg" xmlns:xlink="http://www.w3.org/1999/xlink" width="20" height="20" viewBox="0 0 20 20">
  <defs>
    <linearGradient id="linear-gradient" x1="0.5" y1="0.317" x2="0.5" y2="1" gradientUnits="objectBoundingBox">
      <stop offset="0" stop-color="#8c42ad" stop-opacity="0.6"/>
      <stop offset="1" stop-color="#8c42ad"/>
    </linearGradient>
  </defs>
  <g id="action" transform="translate(0.5)">
    <circle id="Ellipse_6" data-name="Ellipse 6" cx="10" cy="10" r="10" transform="translate(-0.5)" fill="url(#linear-gradient)"/>
    <g id="external-link" transform="translate(2.072 2.571)">
      <path id="Path_473" data-name="Path 473" d="M11.365,6.936a.492.492,0,0,0-.492.492v2.952a.492.492,0,0,1-.492.492h-5.9a.492.492,0,0,1-.492-.492v-5.9a.492.492,0,0,1,.492-.492H7.428a.492.492,0,0,0,0-.984H4.476A1.476,1.476,0,0,0,3,4.476v5.9a1.476,1.476,0,0,0,1.476,1.476h5.9a1.476,1.476,0,0,0,1.476-1.476V7.428A.492.492,0,0,0,11.365,6.936Z" fill="#fff" stroke="#fff" stroke-width="0.2"/>
      <path id="Path_474" data-name="Path 474" d="M13.457,3.984h.777l-3.1,3.09a.494.494,0,1,0,.7.7l3.1-3.09V5.46a.492.492,0,1,0,.984,0V3.492A.492.492,0,0,0,15.426,3H13.457a.492.492,0,0,0,0,.984Z" transform="translate(-4.061)" fill="#fff" stroke="#fff" stroke-width="0.2"/>
    </g>
  </g>
</svg>
