<svg xmlns="http://www.w3.org/2000/svg" width="8.533" height="8.06" viewBox="0 0 8.533 8.06">
  <g id="double-way" transform="translate(-1.4 -1.873)">
    <path id="Path_476" data-name="Path 476" d="M3.474,6.37H9.637l-.759.569a.474.474,0,0,0,.569.759l1.9-1.422a.474.474,0,0,0,0-.754L9.514,4.1a.475.475,0,1,0-.583.749l.744.574h-6.2a.474.474,0,1,0,0,.948Z" transform="translate(-1.6 -2.125)" fill="#231f20"/>
    <path id="Path_477" data-name="Path 477" d="M11.063,14.422H4.9l.759-.569a.474.474,0,1,0-.569-.759l-1.9,1.422a.474.474,0,0,0,0,.754l1.83,1.422a.475.475,0,0,0,.583-.749l-.744-.574h6.2a.474.474,0,0,0,0-.948Z" transform="translate(-1.603 -6.859)" fill="#231f20"/>
  </g>
</svg>
