<svg xmlns="http://www.w3.org/2000/svg" width="20" height="20" viewBox="0 0 20 20">
  <g id="completed" transform="translate(-167.23 -344.23)">
    <rect id="Rectangle_332" data-name="Rectangle 332" width="20" height="20" rx="10" transform="translate(167.23 344.23)" fill="#35b6b4"/>
    <g id="Polygon_8" data-name="Polygon 8" transform="translate(172.338 349.377)">
      <path id="Path_1" data-name="Path 1" d="M3.878,0l.969,2.861,2.908.078L5.446,4.785l.828,2.909-2.4-1.72-2.4,1.72.828-2.909L0,2.939l2.908-.078Z" transform="translate(1.014 1.006)" fill="none"/>
      <path id="Path_2" data-name="Path 2" d="M3.192-.694,2.223,2.167l-2.908.078L1.623,4.09.8,7l2.4-1.72L5.589,7,4.761,4.09,7.07,2.245,4.162,2.167,3.192-.694m0-1.006a1.014,1.014,0,0,1,.961.686L4.9,1.18l2.2.059a1.013,1.013,0,0,1,.934.684,1,1,0,0,1-.325,1.105L5.919,4.457l.646,2.269a1,1,0,0,1-.4,1.1,1.021,1.021,0,0,1-1.175-.01l-1.8-1.293L1.39,7.814a1.021,1.021,0,0,1-1.175.01,1,1,0,0,1-.4-1.1L.465,4.457-1.322,3.028a1,1,0,0,1-.325-1.105,1.013,1.013,0,0,1,.934-.684l2.2-.059.744-2.195A1.014,1.014,0,0,1,3.192-1.7Z" transform="translate(1.7 1.7)" fill="#fff"/>
    </g>
  </g>
</svg>
