<svg xmlns="http://www.w3.org/2000/svg" xmlns:xlink="http://www.w3.org/1999/xlink" width="48" height="48" viewBox="0 0 48 48">
  <defs>
    <filter id="Rectangle_9" x="0" y="0" width="48" height="48" filterUnits="userSpaceOnUse">
      <feOffset dy="3" input="SourceAlpha"/>
      <feGaussianBlur stdDeviation="3" result="blur"/>
      <feFlood flood-opacity="0.161"/>
      <feComposite operator="in" in2="blur"/>
      <feComposite in="SourceGraphic"/>
    </filter>
  </defs>
  <g id="grid-view" transform="translate(-108 -388)">
    <g transform="matrix(1, 0, 0, 1, 108, 388)" filter="url(#Rectangle_9)">
      <rect id="Rectangle_9-2" data-name="Rectangle 9" width="30" height="30" rx="5" transform="translate(9 6)" fill="#fff"/>
    </g>
    <g id="grid" transform="translate(122.667 399.667)">
      <rect id="Rectangle_14" data-name="Rectangle 14" width="18" height="18" transform="translate(0.333 0.333)" fill="#8347ad" opacity="0"/>
      <path id="Path_8" data-name="Path 8" d="M7.667,3H4.556A1.556,1.556,0,0,0,3,4.556V7.667A1.556,1.556,0,0,0,4.556,9.222H7.667A1.556,1.556,0,0,0,9.222,7.667V4.556A1.556,1.556,0,0,0,7.667,3Z" transform="translate(-0.667 -0.667)" fill="#8347ad"/>
      <path id="Path_9" data-name="Path 9" d="M17.667,3H14.556A1.556,1.556,0,0,0,13,4.556V7.667a1.556,1.556,0,0,0,1.556,1.556h3.111a1.556,1.556,0,0,0,1.556-1.556V4.556A1.556,1.556,0,0,0,17.667,3Z" transform="translate(-2.889 -0.667)" fill="#8347ad"/>
      <path id="Path_10" data-name="Path 10" d="M7.667,13H4.556A1.556,1.556,0,0,0,3,14.556v3.111a1.556,1.556,0,0,0,1.556,1.556H7.667a1.556,1.556,0,0,0,1.556-1.556V14.556A1.556,1.556,0,0,0,7.667,13Z" transform="translate(-0.667 -2.889)" fill="#8347ad"/>
      <path id="Path_11" data-name="Path 11" d="M17.667,13H14.556A1.556,1.556,0,0,0,13,14.556v3.111a1.556,1.556,0,0,0,1.556,1.556h3.111a1.556,1.556,0,0,0,1.556-1.556V14.556A1.556,1.556,0,0,0,17.667,13Z" transform="translate(-2.889 -2.889)" fill="#8347ad"/>
    </g>
  </g>
</svg>
