<svg xmlns="http://www.w3.org/2000/svg" width="36.269" height="36.27" viewBox="0 0 36.269 36.27">
  <g id="pending" transform="translate(-163 -340)">
    <g id="Rectangle_332" data-name="Rectangle 332" transform="translate(167 344)" fill="#ffd75f" stroke="#fff" stroke-width="4">
      <rect width="28.269" height="28.27" rx="14.134" stroke="none"/>
      <rect x="-2" y="-2" width="32.269" height="32.27" rx="16.134" fill="none"/>
    </g>
    <path id="pending-icon" d="M10.231,17.233a.71.71,0,1,1,.185,1.407,9.536,9.536,0,0,1-1.858.056A9.183,9.183,0,1,1,11.736.714a9.111,9.111,0,0,1,1.924.8l-.181-.474A.769.769,0,1,1,14.917.5l.765,2a.782.782,0,0,1,.05.238.768.768,0,0,1-.535.855l-2.049.627A.767.767,0,1,1,12.7,2.75l.169-.052A7.766,7.766,0,1,0,8.586,17.276a8.11,8.11,0,0,0,1.645-.042ZM7.778,5.8A.71.71,0,0,1,9.2,5.8v4.32l2.957,1.3a.709.709,0,1,1-.571,1.3l-3.345-1.47a.71.71,0,0,1-.46-.665V5.8ZM12.7,16.475a.71.71,0,1,0,.642,1.266,9.054,9.054,0,0,0,1.31-.805.71.71,0,1,0-.846-1.14A7.613,7.613,0,0,1,12.7,16.475Zm2.9-2.544a.71.71,0,1,0,1.178.791,9.217,9.217,0,0,0,.749-1.341.71.71,0,1,0-1.294-.585A7.776,7.776,0,0,1,15.6,13.931Zm1.3-3.64a.71.71,0,1,0,1.413.134,9.385,9.385,0,0,0,.021-1.534.71.71,0,1,0-1.416.1A7.924,7.924,0,0,1,16.9,10.291Zm-.588-3.817a.71.71,0,0,0,1.3-.561,9.2,9.2,0,0,0-.72-1.356.71.71,0,0,0-1.193.769A7.748,7.748,0,0,1,16.315,6.474Z" transform="translate(171.619 348.776)" fill="#fff"/>
  </g>
</svg>
