<svg xmlns="http://www.w3.org/2000/svg" width="20" height="19.999" viewBox="0 0 20 19.999">
  <g id="save" transform="translate(-0.012)">
    <path id="Rectangle_317" data-name="Rectangle 317" d="M10.027,0A10,10,0,1,1,6.121.788,10,10,0,0,1,10.027,0Z" transform="translate(0 0)" fill="#2e4496"/>
    <path id="Path_1" data-name="Path 1" d="M.546,8.347A.481.481,0,0,1,.361,8.31a.47.47,0,0,1-.15-.093.463.463,0,0,1-.1-.147.453.453,0,0,1-.038-.18L0,1.11a1.024,1.024,0,0,1,.066-.4A1.036,1.036,0,0,1,.158.522,1.047,1.047,0,0,1,.286.353,1.058,1.058,0,0,1,.443.22a1.083,1.083,0,0,1,.589-.2L5.569,0a1.091,1.091,0,0,1,.416.089,1.076,1.076,0,0,1,.337.235,1.05,1.05,0,0,1,.225.334,1.026,1.026,0,0,1,.076.41l.066,6.78a.454.454,0,0,1-.061.235.463.463,0,0,1-.073.1.47.47,0,0,1-.1.075.482.482,0,0,1-.47,0l-2.7-1.465L.787,8.283a.577.577,0,0,1-.179.063Zm2.725-2.56a.556.556,0,0,1,.235.055L5.735,7.054l-.056-6A.2.2,0,0,0,5.668,1,.178.178,0,0,0,5.643.94.118.118,0,0,0,5.61.916.051.051,0,0,0,5.578.906L1.037.948a.054.054,0,0,0-.029.012A.118.118,0,0,0,.978.99a.176.176,0,0,0-.022.048A.223.223,0,0,0,.948,1.1L1,7.066,3.028,5.851A.528.528,0,0,1,3.271,5.786Z" transform="translate(6.668 5.826)" fill="#fff"/>
  </g>
</svg>
