<svg xmlns="http://www.w3.org/2000/svg" width="20" height="20" viewBox="0 0 20 20">
  <g id="inprogress" transform="translate(-198 -326)">
    <rect id="Rectangle_323" data-name="Rectangle 323" width="20" height="20" rx="9.5" transform="translate(198 326)" fill="#ffd75f"/>
    <path id="Path_3" data-name="Path 3" d="M10.832,3.71l-.89.341a3.842,3.842,0,0,1,.113.371A4.67,4.67,0,0,1,9.92,7.171a4.511,4.511,0,0,1-.659,1.2,4.448,4.448,0,0,1-.984.941h0q-.213.149-.431.272t-.451.226a4.76,4.76,0,0,1-1.035.324,4.506,4.506,0,0,1-1.062.075l-.115-.006-.25.935.171.013a5.453,5.453,0,0,0,1.357-.067,5.691,5.691,0,0,0,1.32-.4c.178-.079.355-.167.53-.267s.341-.2.511-.323a5.421,5.421,0,0,0,2-2.6,5.614,5.614,0,0,0,.159-3.31c-.039-.16-.089-.315-.145-.473ZM2.2,10.031a5.4,5.4,0,0,0,1.042.639l.154.072.25-.932-.1-.053a4.474,4.474,0,0,1-.761-.48,4.532,4.532,0,0,1-.659-.63l-.077-.089-.834.481.107.13a5.575,5.575,0,0,0,.883.863ZM.05,6.317a5.406,5.406,0,0,0,.308,1.2l.06.156.834-.481-.04-.112a4.551,4.551,0,0,1-.218-.884,4.434,4.434,0,0,1-.035-.906l.007-.117L.035,4.918.02,5.087a5.35,5.35,0,0,0,.03,1.23ZM.76,2.809C.677,2.95.6,3.092.533,3.237l-.075.155.932.25.053-.1c.053-.1.108-.2.167-.3s.123-.195.19-.288A5.445,5.445,0,0,1,2.155,2.5a4.911,4.911,0,0,1,.391-.4l.085-.078-.483-.838L2.017,1.3a6.172,6.172,0,0,0-.522.514,6.6,6.6,0,0,0-.468.583q-.145.2-.267.41ZM4.586.063a4.936,4.936,0,0,0-.925.249L3.5.372l.482.835L4.1,1.168A4.066,4.066,0,0,1,5.524.946c.11,0,.226.01.345.024s.228.03.34.053.232.051.346.085.227.073.345.118h0A.477.477,0,1,0,7.244.336Q7.036.256,6.821.192C6.677.15,6.537.114,6.4.087S6.117.037,5.978.021,5.694,0,5.546-.008a5.234,5.234,0,0,0-.961.071Z" transform="translate(202.425 330.42)" fill="#fff" fill-rule="evenodd"/>
    <path id="Path_11" data-name="Path 11" d="M6.4,11.985a.344.344,0,0,1-.242-.1L4.1,9.827a.343.343,0,1,1,.485-.485L6.4,11.156,10.955,6.6a.343.343,0,0,1,.485.485l-4.8,4.8a.341.341,0,0,1-.242.1Z" transform="translate(201.653 324.959)" fill="#fff" stroke="#fff" stroke-width="0.2"/>
  </g>
</svg>
