<svg xmlns="http://www.w3.org/2000/svg" width="140.389" height="62.39" viewBox="0 0 140.389 62.39">
  <g id="logo-voilet" transform="translate(0.01 -61.05)">
    <path id="Path_1" data-name="Path 1" d="M438.042,296.1l7.13,6.063a16.85,16.85,0,0,1-14.233,0Z" transform="translate(-314.729 -203.694)" fill="#8347ad" fill-rule="evenodd"/>
    <path id="Path_2" data-name="Path 2" d="M431.019,264.77l10.825,14.662a14.578,14.578,0,0,1-2.163,1.425l-8.666-9.116-8.645,9.116a8.374,8.374,0,0,1-2.18-1.518Z" transform="translate(-307.705 -183.224)" fill="#8347ad" fill-rule="evenodd"/>
    <path id="Path_3" data-name="Path 3" d="M413.5,223.07,405.474,248.9A16.869,16.869,0,0,1,413.5,223.07" transform="translate(-295.963 -155.978)" fill="#8347ad" fill-rule="evenodd"/>
    <path id="Path_4" data-name="Path 4" d="M468.09,223.07l8.028,25.834a16.858,16.858,0,0,0-8.028-25.834" transform="translate(-339.001 -155.978)" fill="#8347ad" fill-rule="evenodd"/>
    <path id="Path_5" data-name="Path 5" d="M426.569,205.64l13.189,32.805c-.2.2-.693.815-1.435,1.536l-11.754-20.8-11.737,20.8a10.231,10.231,0,0,1-1.452-1.536Z" transform="translate(-303.255 -144.59)" fill="#8347ad" fill-rule="evenodd"/>
    <path id="Path_6" data-name="Path 6" d="M238.247,158.793l1.047-4.943-3.487,4.943h-1.276l-1.435-5.134L232,158.793H230.58l1.619-7.553h1.7l1.563,5.841,4.056-5.841h1.789l-1.619,7.553Z" transform="translate(-150.661 -58.927)" fill="#636466" fill-rule="evenodd"/>
    <path id="Path_7" data-name="Path 7" d="M210.709,152.3l-.458,2.1h3.74l-.218,1.1h-3.747l-.471,2.194H213.6l-.215,1.1H207.79l1.622-7.553h5.7l-.222,1.064Z" transform="translate(-135.771 -58.927)" fill="#636466" fill-rule="evenodd"/>
    <path id="Path_8" data-name="Path 8" d="M191.115,152.3l-1.393,6.489h-1.539l1.393-6.489h-2.5l.25-1.064h6.6L193.7,152.3Z" transform="translate(-122.239 -58.927)" fill="#636466" fill-rule="evenodd"/>
    <path id="Path_9" data-name="Path 9" d="M145.751,155.58l-.69,3.213h-1.5l.69-3.227-2-4.326h1.612l1.4,3.047,2.856-3.047h1.73Z" transform="translate(-92.949 -58.927)" fill="#636466" fill-rule="evenodd"/>
    <path id="Path_10" data-name="Path 10" d="M219.737,295.64a9.053,9.053,0,0,1,1.848.218,3.248,3.248,0,0,0-.017,1.189,11.506,11.506,0,0,0-2.056-.312c-.981,0-1.532.437-1.518.856.017.614.787,1.161,1.262,1.48,1.237.828,1.681,1.445,1.7,2.218.035,1.293-1.5,2.149-3.061,2.149a9.12,9.12,0,0,1-2.26-.364.284.284,0,0,1-.2-.309,7.974,7.974,0,0,0,.031-1.22,3.74,3.74,0,0,0,2.4.811c.776,0,1.6-.4,1.584-1s-.874-1.123-1.248-1.407c-.776-.589-1.705-1.182-1.733-2.2-.024-.926.6-2.114,3.269-2.114" transform="translate(-173.923 -203.393)" fill="#636466"/>
    <path id="Path_11" data-name="Path 11" d="M263.887,295.64a9.053,9.053,0,0,1,1.848.218,3.286,3.286,0,0,0-.021,1.189,11.44,11.44,0,0,0-2.052-.312c-.981,0-1.532.437-1.518.856.017.614.787,1.161,1.258,1.48,1.241.828,1.685,1.445,1.705,2.218.035,1.293-1.5,2.149-3.061,2.149a9.121,9.121,0,0,1-2.26-.364.284.284,0,0,1-.2-.309,7.974,7.974,0,0,0,.031-1.22,3.74,3.74,0,0,0,2.4.811c.776,0,1.6-.4,1.581-1s-.87-1.123-1.244-1.407c-.776-.589-1.705-1.182-1.733-2.2-.028-.926.6-2.114,3.269-2.114" transform="translate(-202.769 -203.393)" fill="#636466"/>
    <path id="Path_12" data-name="Path 12" d="M363.463,295.64a9.109,9.109,0,0,1,1.851.218,3.2,3.2,0,0,0-.021,1.189,11.438,11.438,0,0,0-2.055-.312c-.978,0-1.529.437-1.518.856,0,.614.787,1.161,1.262,1.48,1.241.828,1.681,1.445,1.7,2.218.038,1.293-1.5,2.149-3.061,2.149a9.092,9.092,0,0,1-2.257-.364.281.281,0,0,1-.2-.309,7.746,7.746,0,0,0,.028-1.22,3.744,3.744,0,0,0,2.4.811c.776,0,1.6-.4,1.581-1s-.874-1.123-1.248-1.407c-.776-.589-1.705-1.182-1.733-2.2-.024-.926.607-2.114,3.269-2.114" transform="translate(-267.831 -203.393)" fill="#636466"/>
    <path id="Path_13" data-name="Path 13" d="M186.729,64.322H182.75l.676-3.272h3.979Z" transform="translate(-119.41 0)" fill="#636466" fill-rule="evenodd"/>
    <path id="Path_14" data-name="Path 14" d="M172.722,100.46H169.19l4.3-20.16H177Z" transform="translate(-110.55 -12.577)" fill="#636466" fill-rule="evenodd"/>
    <path id="Path_15" data-name="Path 15" d="M300.421,227.254a3.2,3.2,0,0,0-1.809-.516c-2.773,0-6.156,2.631-6.711,5.262l-2.593,12.423H285.79l4.232-19.983h3.73a18.557,18.557,0,0,0-.693,2.08s2.773-2.589,5.383-2.589h2.579a16.292,16.292,0,0,1-.631,3.324" transform="translate(-219.892 -156.54)" fill="#636466"/>
    <path id="Path_16" data-name="Path 16" d="M157,229.7c0-3.3,3.12-5.321,8.371-5.321a40.332,40.332,0,0,1,4.232.444,18.1,18.1,0,0,0-.347,3.577l-.77-.5a13.778,13.778,0,0,0-3.965-.676c-3.12,0-4.08,1.185-4.08,2.374,0,1.653,1.733,2.891,3.009,3.958,1.484,1.248,3.834,2.825,3.834,5.65,0,2.392-1.553,6.018-8.246,6.018a28.487,28.487,0,0,1-5.061-.61s-.413-.3-.035-4.069l.849,1.081a11.457,11.457,0,0,0,4.829.946c2.8,0,4.083-1.227,4.083-2.426,0-1.56-1.6-2.908-3.043-4.385-1.934-1.976-3.653-3.543-3.653-6.076" transform="translate(-133.641 -156.834)" fill="#636466"/>
    <path id="Path_17" data-name="Path 17" d="M340.117,233.392c2.042-5.643-1.023-10.052-6.475-10.052-7.362,0-11.785,6.648-12.059,13.29-.156,3.813,1.612,8.073,8.236,8.073a18.182,18.182,0,0,0,6.42-.981,11.483,11.483,0,0,0,1.2-3.321,18.839,18.839,0,0,1-7,1.664c-5.6,0-5.893-5.588-4.829-8.666Zm-6.44-7.258c2.156,0,4.506,1.421,3.546,4.714l-10.943.1a7.469,7.469,0,0,1,7.4-4.818" transform="translate(-243.272 -156.155)" fill="#636466"/>
    <path id="Path_18" data-name="Path 18" d="M108.2,223.65a38.489,38.489,0,0,0-6.569.946l-1.234,3.3a34.843,34.843,0,0,1,7.681-1.421c2.007,0,4.01.4,3.983,2.038-.045,2.51-5.823,3.584-9.46,4.648-4.628,1.355-6.933,3.861-6.933,7.068,0,3.31,2.939,4.541,6.631,4.541h9.851l3.588-16.687c.593-3.088-3.591-4.433-7.536-4.433m.925,17.935a12.839,12.839,0,0,1-4.322.589c-3.338,0-5.546-.523-5.546-2.4a3.532,3.532,0,0,1,2.371-3.22c3.369-1.251,5.938-1.563,9.359-3.258Z" transform="translate(-95.673 -156.357)" fill="#636466"/>
    <path id="Path_19" data-name="Path 19" d="M207.3,223.82c-6.038,0-8.839,1.387-8.839,1.387l-7.234,31.325h3.224l3.629-14.423a6.732,6.732,0,0,0,5.2,2.877c5.082.367,10.052-2.288,11.98-9.591,1.948-7.414-1.477-11.574-7.948-11.574m4.808,11.026c-1.7,5.518-5.141,7.661-7.851,7.661-3.494,0-5.546-3.647-4.988-6.433l1.733-8.2a10.4,10.4,0,0,1,5.744-1.227c3.917.142,7.141,2.378,5.348,8.2" transform="translate(-158.109 -156.468)" fill="#636466"/>
    <rect id="Rectangle_1" data-name="Rectangle 1" width="140.385" height="0.693" transform="translate(-0.007 108.552)" fill="#8347ad"/>
    <path id="Path_20" data-name="Path 20" d="M96.9,365.849l-.2.87a5.3,5.3,0,0,1,1.643-.347c.967,0,1.2.3.991,1.082-2.1,0-3.685.593-3.685,2.08a1.234,1.234,0,0,0,1.272,1.328,2.873,2.873,0,0,0,1.785-.669l-.121.53h.856s.544-2.371.783-3.407c.295-1.289-.492-1.7-1.556-1.7a8.278,8.278,0,0,0-1.768.229M98.87,369.5a2.593,2.593,0,0,1-1.494.593c-.5,0-.808-.191-.808-.6,0-.763.672-1.182,1.636-1.286.246-.028.981-.094.981-.094Z" transform="translate(-95.66 -249.116)" fill="#231f20"/>
    <path id="Path_21" data-name="Path 21" d="M351.635,365.849l-.2.87a5.268,5.268,0,0,1,1.64-.347c.967,0,1.2.3.995,1.081-2.1,0-3.688.593-3.688,2.08a1.234,1.234,0,0,0,1.276,1.328,2.866,2.866,0,0,0,1.782-.669l-.121.53h.86s.544-2.371.78-3.407c.295-1.289-.492-1.7-1.553-1.7a8.32,8.32,0,0,0-1.771.229M353.6,369.5a2.582,2.582,0,0,1-1.494.593c-.5,0-.808-.191-.808-.6,0-.763.672-1.182,1.636-1.286.246-.028.984-.094.984-.094Z" transform="translate(-262.093 -249.116)" fill="#231f20"/>
    <path id="Path_22" data-name="Path 22" d="M430.034,365.849l-.2.87a5.273,5.273,0,0,1,1.643-.347c.964,0,1.192.3.991,1.082-2.1,0-3.688.593-3.688,2.08a1.234,1.234,0,0,0,1.276,1.328,2.874,2.874,0,0,0,1.785-.669l-.125.53h.86s.544-2.371.783-3.407c.295-1.289-.492-1.7-1.556-1.7a8.318,8.318,0,0,0-1.771.229M432,369.5a2.6,2.6,0,0,1-1.5.593c-.5,0-.8-.191-.8-.6,0-.763.669-1.182,1.636-1.286.243-.028.981-.094.981-.094Z" transform="translate(-313.317 -249.116)" fill="#231f20"/>
    <path id="Path_23" data-name="Path 23" d="M123.863,366.741c-.347,1.466.641,1.622.991,1.622a3.646,3.646,0,0,0,1.12-.142l.18-.79a2.128,2.128,0,0,1-.877.194c-.5,0-.659-.291-.582-.693l.662-2.95h1.588l.159-.693h-1.588l.329-1.428h-.863l-.329,1.428h-.582l-.159.693h.582Z" transform="translate(-114.046 -246.659)" fill="#231f20"/>
    <path id="Path_24" data-name="Path 24" d="M145.4,366.741c-.347,1.466.638,1.622.991,1.622a3.636,3.636,0,0,0,1.116-.142l.18-.79a2.1,2.1,0,0,1-.874.194c-.5,0-.662-.291-.582-.693l.662-2.95h1.588l.159-.693h-1.588l.329-1.428h-.863l-.347,1.428h-.582l-.159.693h.582Z" transform="translate(-128.12 -246.659)" fill="#231f20"/>
    <path id="Path_25" data-name="Path 25" d="M221.993,366.741c-.347,1.466.641,1.622.991,1.622a3.646,3.646,0,0,0,1.12-.142l.18-.79a2.1,2.1,0,0,1-.874.194c-.5,0-.662-.291-.582-.693l.662-2.95h1.577l.159-.693H223.64l.326-1.428H223.1l-.326,1.428h-.582l-.159.693h.607Z" transform="translate(-178.162 -246.659)" fill="#231f20"/>
    <path id="Path_26" data-name="Path 26" d="M170.974,368.294s.926-2.714-1.4-2.714a3.205,3.205,0,0,0-3.12,3.376c0,1.04.731,1.854,2.163,1.854a4.963,4.963,0,0,0,1.775-.419l.218-.971a3.466,3.466,0,0,1-1.91.662c-.995,0-1.584-.516-1.283-1.789Zm-1.6-2.024c1.442,0,.95,1.387.95,1.387H167.57a2,2,0,0,1,1.8-1.387" transform="translate(-141.919 -249.09)" fill="#231f20"/>
    <path id="Path_27" data-name="Path 27" d="M193.14,370.7H194l.853-3.716a3.975,3.975,0,0,1,1.584-.6c.544,0,.818.146.562,1.272l-.693,3.047h.863s.51-2.274.738-3.231c.132-.537.471-1.886-1.179-1.886a3.165,3.165,0,0,0-1.712.693l.125-.551h-.863Z" transform="translate(-159.357 -249.09)" fill="#231f20"/>
    <path id="Path_28" data-name="Path 28" d="M289,370.7h.863l.87-3.716a4,4,0,0,1,1.588-.6c.541,0,.815.146.562,1.272l-.693,3.047h.863s.51-2.274.742-3.231c.128-.537.468-1.886-1.182-1.886a3.179,3.179,0,0,0-1.712.693l.125-.551h-.863Z" transform="translate(-221.989 -249.09)" fill="#231f20"/>
    <path id="Path_29" data-name="Path 29" d="M266.5,366.243a1.692,1.692,0,0,0-1.5-.693,2.683,2.683,0,0,0-1.823.693,3.532,3.532,0,0,0-1.075,1.938,2.48,2.48,0,0,0,.17,1.92,1.667,1.667,0,0,0,1.522.693,2.669,2.669,0,0,0,1.82-.693,3.529,3.529,0,0,0,1.068-1.941,2.437,2.437,0,0,0-.177-1.941m-.693,1.941a2.887,2.887,0,0,1-.693,1.428,1.546,1.546,0,0,1-1.14.475.953.953,0,0,1-.929-.482,2.08,2.08,0,0,1-.038-1.421,2.87,2.87,0,0,1,.693-1.435,1.56,1.56,0,0,1,1.147-.471.957.957,0,0,1,.926.471,2.127,2.127,0,0,1,.035,1.435" transform="translate(-204.342 -249.067)" fill="#231f20"/>
    <path id="Path_30" data-name="Path 30" d="M213.6,233.352h-1.1l.291-1.272h1.1Z" transform="translate(-138.848 -111.746)" fill="#231f20"/>
    <path id="Path_31" data-name="Path 31" d="M402.1,233.352H401l.291-1.272h1.1Z" transform="translate(-262.008 -111.746)" fill="#231f20"/>
    <path id="Path_32" data-name="Path 32" d="M151.8,217.33h-.984l.2-.87H152Z" transform="translate(-98.548 -101.54)" fill="#231f20"/>
    <path id="Path_33" data-name="Path 33" d="M148.013,226.361h-.863l1.14-4.981h.863Z" transform="translate(-96.15 -104.755)" fill="#231f20"/>
    <path id="Path_34" data-name="Path 34" d="M365.131,221.38l-4.319,6.815h-.922l1.393-2.076-.776-4.738h.932l.555,3.688,2.239-3.688Z" transform="translate(-235.148 -104.755)" fill="#231f20"/>
    <path id="Path_35" data-name="Path 35" d="M309.34,221.38l-2.44,4.981h-.8l-.371-3.837-2.125,3.837h-.794l-.17-4.981h.9l.021,3.858,2.1-3.858h.711l.364,3.858,1.737-3.858Z" transform="translate(-197.743 -104.755)" fill="#231f20"/>
    <path id="Path_36" data-name="Path 36" d="M282.753,222.67h-.863l1.591-6.94h.863Z" transform="translate(-184.185 -101.063)" fill="#231f20"/>
    <path id="Path_37" data-name="Path 37" d="M485.576,366.945l.215-.932a2.936,2.936,0,0,0-1.5-.347,2.078,2.078,0,0,0-2.305,1.813c0,.9.863,1.078,1.536,1.213s.884.329.808.773-.614.693-1.258.693a2.08,2.08,0,0,1-1.595-.693l-.225.981a3.467,3.467,0,0,0,1.65.419,2.241,2.241,0,0,0,2.3-1.473c.343-1.075-.281-1.355-1.321-1.532-.5-.087-1.057-.211-.957-.745s.6-.759,1.286-.759a1.969,1.969,0,0,1,1.387.582" transform="translate(-347.6 -249.145)" fill="#231f20"/>
  </g>
</svg>
