<svg xmlns="http://www.w3.org/2000/svg" width="52.14" height="59.594" viewBox="0 0 52.14 59.594">
  <g id="mobile-logo-voilet" transform="translate(-133.652 -419.3)">
    <path id="Path_343" data-name="Path 343" d="M946.793,250.63l10.879,9.261a25.763,25.763,0,0,1-21.752,0Z" transform="translate(-787.071 216.595)" fill="#8347ad" fill-rule="evenodd"/>
    <path id="Path_344" data-name="Path 344" d="M942.37,221.07,958.916,243.5a22.27,22.27,0,0,1-3.3,2.185L942.37,231.7l-13.21,13.934a12.733,12.733,0,0,1-3.331-2.325Z" transform="translate(-782.648 229.553)" fill="#8347ad" fill-rule="evenodd"/>
    <path id="Path_345" data-name="Path 345" d="M926.109,181.722l-12.272,39.461A25.777,25.777,0,0,1,926.109,181.7" transform="translate(-775.21 246.811)" fill="#8347ad" fill-rule="evenodd"/>
    <path id="Path_346" data-name="Path 346" d="M971,181.722l12.266,39.461A25.778,25.778,0,0,0,971,181.7" transform="translate(-802.449 246.811)" fill="#8347ad" fill-rule="evenodd"/>
    <path id="Path_347" data-name="Path 347" d="M939.525,165.3l20.157,50.132c-.309.309-1.078,1.247-2.19,2.353L939.52,185.974l-17.933,31.811a15.564,15.564,0,0,1-2.246-2.353Z" transform="translate(-779.803 254)" fill="#8347ad" fill-rule="evenodd"/>
  </g>
</svg>
