<svg xmlns="http://www.w3.org/2000/svg" width="16" height="12.75" viewBox="0 0 16 12.75">
  <g id="sort" transform="translate(16) rotate(90)">
    <rect id="Rectangle_293" data-name="Rectangle 293" width="16" height="12.75" transform="translate(0 16) rotate(-90)" opacity="0"/>
    <path id="Path_349" data-name="Path 349" d="M3.569,7.437h7.4l-.911.825a.785.785,0,0,0-.114.962A.544.544,0,0,0,10.4,9.5a.509.509,0,0,0,.342-.137L13.023,7.3a.779.779,0,0,0,0-1.093l-2.2-2.062a.508.508,0,0,0-.8.12.788.788,0,0,0,.1.966l.894.832H3.569A.637.637,0,0,0,3,6.749.637.637,0,0,0,3.569,7.437Z" transform="translate(-1.749 -0.999)"/>
    <path id="Path_350" data-name="Path 350" d="M12.684,15.062h-7.4l.911-.825a.785.785,0,0,0,.114-.962.508.508,0,0,0-.8-.138L3.231,15.2a.779.779,0,0,0,0,1.093l2.2,2.062a.511.511,0,0,0,.347.144.542.542,0,0,0,.45-.268.787.787,0,0,0-.1-.962l-.894-.832h7.449a.7.7,0,0,0,0-1.375Z" transform="translate(-1.753 -3.583)"/>
  </g>
</svg>
