<svg xmlns="http://www.w3.org/2000/svg" width="36.27" height="36.27" viewBox="0 0 36.27 36.27">
  <g id="success" transform="translate(-163 -340)">
    <g id="Rectangle_329" data-name="Rectangle 329" transform="translate(167 344)" fill="#35b6b4" stroke="#fff" stroke-width="4">
      <rect width="28.27" height="28.27" rx="14.135" stroke="none"/>
      <rect x="-2" y="-2" width="32.27" height="32.27" rx="16.135" fill="none"/>
    </g>
    <path id="Path_430" data-name="Path 430" d="M7.357,14.172a.482.482,0,0,1-.339-.14L4.14,11.155a.479.479,0,0,1,.678-.678l2.538,2.538L13.73,6.641a.479.479,0,0,1,.678.678L7.694,14.032a.478.478,0,0,1-.339.14Z" transform="translate(175.253 348.717)" fill="#fff" stroke="#fff" stroke-width="1"/>
    <rect id="Rectangle_330" data-name="Rectangle 330" width="4.544" height="4.544" transform="translate(178.784 356.225) rotate(43)" fill="#35b6b4"/>
    <path id="Path_431" data-name="Path 431" d="M7.357,14.172a.482.482,0,0,1-.339-.14L4.14,11.155a.479.479,0,0,1,.678-.678l2.538,2.538L13.73,6.641a.479.479,0,0,1,.678.678L7.694,14.032a.478.478,0,0,1-.339.14Z" transform="translate(168.094 348.717)" fill="#fff" stroke="#fff" stroke-width="1"/>
  </g>
</svg>
