<svg xmlns="http://www.w3.org/2000/svg" width="21.397" height="21.397" viewBox="0 0 21.397 21.397">
  <g id="success" transform="translate(-167 -344)">
    <rect id="Rectangle_329" data-name="Rectangle 329" width="21.397" height="21.397" rx="10.698" transform="translate(167 344)" fill="#35b6b4"/>
    <path id="Path_430" data-name="Path 430" d="M6.541,12.307a.365.365,0,0,1-.257-.106L4.106,10.023a.363.363,0,0,1,.513-.513L6.54,11.431l4.824-4.824a.363.363,0,0,1,.513.513L6.8,12.2a.362.362,0,0,1-.257.106Z" transform="translate(172.274 345.99)" fill="#fff" stroke="#fff" stroke-width="1"/>
    <rect id="Rectangle_330" data-name="Rectangle 330" width="3.439" height="3.439" transform="translate(175.919 353.253) rotate(43)" fill="#35b6b4"/>
    <path id="Path_431" data-name="Path 431" d="M6.541,12.307a.365.365,0,0,1-.257-.106L4.106,10.023a.363.363,0,0,1,.513-.513L6.54,11.431l4.824-4.824a.363.363,0,0,1,.513.513L6.8,12.2a.362.362,0,0,1-.257.106Z" transform="translate(166.856 345.99)" fill="#fff" stroke="#fff" stroke-width="1"/>
  </g>
</svg>
