<svg xmlns="http://www.w3.org/2000/svg" width="28.27" height="28.27" viewBox="0 0 28.27 28.27">
  <g id="reimbursement_processed" data-name="reimbursement processed" transform="translate(-167 -344)">
    <rect id="Rectangle_329" data-name="Rectangle 329" width="28.27" height="28.27" rx="14.135" transform="translate(167 344)" fill="#35b6b4"/>
    <path id="_Group_" data-name="&lt;Group&gt;" d="M7.285,17.992a1.8,1.8,0,0,1-1.079-.368L4.55,16.393a1.9,1.9,0,0,1-.392-2.575,1.647,1.647,0,0,0,.184-1.487L4.294,12.2a1.463,1.463,0,0,0-.9-.976H3.27A1.871,1.871,0,0,1,2.087,8.877L2.743,6.8a1.743,1.743,0,0,1,.9-1.127,1.711,1.711,0,0,1,1.343-.1A1.543,1.543,0,0,0,6.4,5.342l.1-.08a1.551,1.551,0,0,0,.584-1.207V3.863A1.855,1.855,0,0,1,8.924,2h2.039a1.807,1.807,0,0,1,1.279.536,1.9,1.9,0,0,1,.544,1.343V4.1a1.407,1.407,0,0,0,.552,1.143l.088.064a1.391,1.391,0,0,0,1.271.208l.272-.088a1.807,1.807,0,0,1,2.3,1.207L17.9,8.653A1.887,1.887,0,0,1,16.736,11l-.16.056a1.511,1.511,0,0,0-.984,1.024,1.6,1.6,0,0,0,.2,1.319l.208.3a1.9,1.9,0,0,1-.4,2.583l-1.607,1.239a1.791,1.791,0,0,1-2.575-.424l-.1-.136a1.4,1.4,0,0,0-1.2-.624,1.439,1.439,0,0,0-1.143.616l-.184.264a1.8,1.8,0,0,1-1.2.776A1.6,1.6,0,0,1,7.285,17.992Zm-3.366-8.3a3.063,3.063,0,0,1,1.9,2v.1a3.2,3.2,0,0,1-.368,2.895.3.3,0,0,0,0,.408l1.719,1.3a.2.2,0,0,0,.3-.056l.184-.264a3.015,3.015,0,0,1,4.958,0l.1.144a.24.24,0,0,0,.144.1.2.2,0,0,0,.152-.04l1.647-1.247a.288.288,0,0,0,.056-.392l-.208-.3a3.2,3.2,0,0,1-.424-2.735,3.135,3.135,0,0,1,1.991-2.087l.16-.056a.272.272,0,0,0,.152-.352L15.752,7.11a.28.28,0,0,0-.16-.152.168.168,0,0,0-.152,0l-.272.088a2.991,2.991,0,0,1-2.743-.456l-.032-.072a3.007,3.007,0,0,1-1.191-2.4V3.871a.3.3,0,0,0-.08-.208.248.248,0,0,0-.168-.064H8.924a.248.248,0,0,0-.232.264v.2A3.119,3.119,0,0,1,7.476,6.534l-.1.08a3.126,3.126,0,0,1-2.9.472.176.176,0,0,0-.112,0,.224.224,0,0,0-.1.12L3.6,9.293a.288.288,0,0,0,.176.36Z" transform="translate(171.105 348.135)" fill="#fff"/>
    <path id="Path_450" data-name="Path 450" d="M11.3,14.1a2.8,2.8,0,1,1,2.8-2.8A2.8,2.8,0,0,1,11.3,14.1Zm0-4a1.2,1.2,0,1,0,1.2,1.2A1.2,1.2,0,0,0,11.3,10.1Z" transform="translate(169.801 346.833)" fill="#fff"/>
  </g>
</svg>
