<svg xmlns="http://www.w3.org/2000/svg" width="21.67" height="21.67" viewBox="0 0 21.67 21.67">
  <g id="pending-1" transform="translate(-167 -344)">
    <rect id="Rectangle_329" data-name="Rectangle 329" width="21.67" height="21.67" rx="10.835" transform="translate(167 344)" fill="#2e4496"/>
    <path id="Path_1" data-name="Path 1" d="M5.617,12.246A.624.624,0,0,1,5.2,12.1a.492.492,0,0,1-.176-.365L4.939,4.229A1.073,1.073,0,0,1,5.294,3.4a1.428,1.428,0,0,1,.933-.369L11.876,3a1.253,1.253,0,0,1,1.314,1.183l.083,7.5a.5.5,0,0,1-.289.445.667.667,0,0,1-.591,0L9.037,10.515,5.918,12.169a.792.792,0,0,1-.3.077Zm3.4-2.841a.736.736,0,0,1,.295.061L12.084,10.8l-.071-6.63c0-.1-.077-.175-.123-.169L6.23,4.05c-.047,0-.112.067-.112.169l.071,6.6L8.712,9.477a.7.7,0,0,1,.3-.072Z" transform="translate(168.728 347.112)" fill="#fff"/>
  </g>
</svg>
